<svg width="246" height="264" viewBox="0 0 246 264" fill="none" xmlns="http://www.w3.org/2000/svg">
<g filter="url(#filter0_d)">
<path d="M149.044 248.618H96.6361V230.164C96.6361 219.973 104.898 211.711 115.09 211.711H130.59C140.782 211.711 149.044 219.973 149.044 230.164V248.618H149.044Z" fill="#F4B2B0"/>
<path d="M63.7887 248.618H11.3804V230.164C11.3804 219.973 19.6423 211.711 29.8338 211.711H45.3347C55.5262 211.711 63.7882 219.973 63.7882 230.164V248.618H63.7887Z" fill="#F4B2B0"/>
<path d="M234.3 248.618H181.892V230.164C181.892 219.973 190.154 211.711 200.345 211.711H215.846C226.037 211.711 234.299 219.973 234.299 230.164V248.618H234.3Z" fill="#F4B2B0"/>
<path d="M59.3913 208.505C63.5153 203.571 66.0038 197.224 66.0038 190.306C66.0038 174.636 53.2553 161.888 37.5854 161.888C21.9154 161.888 9.16698 174.636 9.16698 190.306C9.16698 197.225 11.6545 203.571 15.7795 208.505C8.69698 213.117 4 221.1 4 230.164L4 248.618C4 252.695 7.30549 255.999 11.3815 255.999H63.7898C67.8657 255.999 71.1712 252.695 71.1712 248.618V230.164C71.1702 221.1 66.4738 213.117 59.3913 208.505ZM37.5844 176.651C45.1143 176.651 51.2398 182.777 51.2398 190.306C51.2398 197.836 45.1138 203.962 37.5844 203.962C30.0549 203.962 23.9289 197.836 23.9289 190.306C23.9289 182.776 30.0544 176.651 37.5844 176.651ZM56.4073 241.236H18.7619V230.164C18.7619 224.059 23.7289 219.092 29.8339 219.092H45.3348C51.4398 219.092 56.4068 224.059 56.4068 230.164V241.236H56.4073Z" fill="#B3404A"/>
<path d="M229.903 208.505C234.027 203.571 236.516 197.224 236.516 190.306C236.516 174.636 223.767 161.888 208.097 161.888C192.427 161.888 179.679 174.636 179.679 190.306C179.679 197.225 182.166 203.571 186.291 208.505C179.209 213.117 174.512 221.1 174.512 230.164V248.618C174.512 252.695 177.817 255.999 181.893 255.999H234.302C238.378 255.999 241.683 252.695 241.683 248.618V230.164C241.682 221.1 236.986 213.117 229.903 208.505ZM208.096 176.651C215.626 176.651 221.751 182.777 221.751 190.306C221.751 197.836 215.625 203.962 208.096 203.962C200.566 203.962 194.44 197.836 194.44 190.306C194.44 182.776 200.566 176.651 208.096 176.651ZM226.919 241.236H189.273V230.164C189.273 224.059 194.24 219.092 200.345 219.092H215.846C221.951 219.092 226.918 224.059 226.918 230.164V241.236H226.919Z" fill="#B3404A"/>
<path d="M115.54 58.9463H136.191C149.641 58.9463 160.545 69.8502 160.545 83.3012V119.301H85.1357V83.3012C85.1357 69.8507 96.0397 58.9463 109.491 58.9463H130.141" fill="#F4B2B0"/>
<path d="M201.453 111.919H181.892H167.927V83.3012C167.927 71.1057 161.008 60.5013 150.894 55.1898C153.525 51.2398 155.064 46.5018 155.064 41.4093V24.9229C155.064 20.8459 151.758 17.5414 147.683 17.5414C143.607 17.5414 140.301 20.8459 140.301 24.9229V41.4093C140.301 46.9823 135.789 51.5183 130.227 51.5648H115.455C109.893 51.5183 105.381 46.9823 105.381 41.4093V24.9229C105.381 19.3209 109.939 14.7629 115.541 14.7629L130.142 14.7629C134.218 14.7629 137.524 11.4585 137.524 7.38147C137.524 3.30449 134.217 0 130.141 0L115.54 0C101.798 0 90.6167 11.18 90.6167 24.9229V41.4093C90.6167 46.5008 92.1542 51.2393 94.7867 55.1898C84.6717 60.5013 77.7538 71.1057 77.7538 83.3012V111.919H63.7878H44.2279C40.1519 111.919 36.8464 115.224 36.8464 119.301C36.8464 123.378 40.1519 126.682 44.2279 126.682H57.4649L71.2668 215.548C71.8258 219.145 74.9213 221.797 78.5613 221.797H90.6537C89.7517 224.423 89.2547 227.236 89.2547 230.165V248.619C89.2547 252.696 92.5602 256 96.6362 256H149.044C153.12 256 156.426 252.696 156.426 248.619V230.165C156.426 227.236 155.929 224.423 155.027 221.797H167.119C170.759 221.797 173.855 219.145 174.414 215.548L188.216 126.682H201.453C205.529 126.682 208.834 123.378 208.834 119.301C208.834 115.224 205.529 111.919 201.453 111.919ZM92.5167 83.3012C92.5167 73.9422 100.131 66.3277 109.49 66.3277H115.369C115.399 66.3277 115.429 66.3297 115.459 66.3297V92.8166C115.459 96.8936 118.764 100.198 122.84 100.198C126.916 100.198 130.222 96.8936 130.222 92.8166V66.3297C130.252 66.3297 130.282 66.3277 130.312 66.3277H136.191C145.55 66.3277 153.164 73.9417 153.164 83.3012V111.919H92.5167V83.3012ZM122.84 203.962C115.31 203.962 109.185 197.836 109.185 190.307C109.185 182.777 115.311 176.651 122.84 176.651C130.37 176.651 136.496 182.777 136.496 190.307C136.496 197.836 130.37 203.962 122.84 203.962ZM141.663 241.236H104.018V230.164C104.018 224.059 108.985 219.092 115.09 219.092H130.591C136.696 219.092 141.663 224.059 141.663 230.164V241.236H141.663ZM160.796 207.033H145.795C149.227 202.336 151.259 196.555 151.259 190.306C151.259 174.636 138.511 161.888 122.841 161.888C107.171 161.888 94.4227 174.636 94.4227 190.306C94.4227 196.555 96.4547 202.337 99.8872 207.033H84.8857L72.4053 126.682H85.1353H160.545L173.275 126.682L160.796 207.033Z" fill="#B3404A"/>
<g clip-path="url(#clip0)">
<path d="M143.453 111.919H123.892H109.927V83.3012C109.927 71.1057 103.009 60.5013 92.894 55.1898C95.5255 51.2398 97.064 46.5018 97.064 41.4093V24.9229C97.064 20.8459 93.7585 17.5414 89.6825 17.5414C85.6065 17.5414 82.301 20.8459 82.301 24.9229V41.4093C82.301 46.9823 77.7886 51.5183 72.2271 51.5648H57.4546C51.8926 51.5183 47.3807 46.9823 47.3807 41.4093V24.9229C47.3807 19.3209 51.9386 14.7629 57.5406 14.7629H72.1421C76.2181 14.7629 79.5235 11.4585 79.5235 7.38147C79.5235 3.30449 76.2171 0 72.1411 0H57.5396C43.7977 0 32.6168 11.18 32.6168 24.9229V41.4093C32.6168 46.5008 34.1543 51.2393 36.7867 55.1898C26.6718 60.5013 19.7538 71.1057 19.7538 83.3012V111.919H5.78783H-13.7721C-17.8481 111.919 -21.1536 115.224 -21.1536 119.301C-21.1536 123.378 -17.8481 126.682 -13.7721 126.682H-0.535065L13.2668 215.548C13.8258 219.145 16.9213 221.797 20.5613 221.797H32.6538C31.7518 224.423 31.2548 227.236 31.2548 230.165V248.619C31.2548 252.696 34.5603 256 38.6362 256H91.0445C95.1205 256 98.426 252.696 98.426 248.619V230.165C98.426 227.236 97.929 224.423 97.027 221.797H109.119C112.759 221.797 115.855 219.145 116.414 215.548L130.216 126.682H143.453C147.529 126.682 150.834 123.378 150.834 119.301C150.834 115.224 147.529 111.919 143.453 111.919ZM34.5168 83.3012C34.5168 73.9422 42.1307 66.3277 51.4902 66.3277H57.3686C57.3991 66.3277 57.4286 66.3297 57.4586 66.3297V92.8166C57.4586 96.8936 60.7641 100.198 64.8401 100.198C68.9161 100.198 72.2216 96.8936 72.2216 92.8166V66.3297C72.2521 66.3297 72.2816 66.3277 72.3116 66.3277H78.1906C87.55 66.3277 95.164 73.9417 95.164 83.3012V111.919H34.5168V83.3012ZM64.8401 203.962C57.3101 203.962 51.1847 197.836 51.1847 190.307C51.1847 182.777 57.3106 176.651 64.8401 176.651C72.3701 176.651 78.4955 182.777 78.4955 190.307C78.496 197.836 72.3701 203.962 64.8401 203.962ZM83.663 241.236H46.0177V230.164C46.0177 224.059 50.9847 219.092 57.0896 219.092H72.5906C78.6955 219.092 83.6625 224.059 83.6625 230.164V241.236H83.663ZM102.796 207.033H87.795C91.2265 202.336 93.2595 196.555 93.2595 190.306C93.2595 174.636 80.511 161.888 64.8411 161.888C49.1712 161.888 36.4227 174.636 36.4227 190.306C36.4227 196.555 38.4547 202.337 41.8872 207.033H26.8858L14.4053 126.682H27.1353H102.546H115.275L102.796 207.033Z" fill="#B3404A"/>
</g>
<g clip-path="url(#clip1)">
<path d="M143.453 -49.919H123.892H109.927V-21.3012C109.927 -9.1057 103.009 1.4987 92.894 6.8102C95.5255 10.7602 97.064 15.4982 97.064 20.5907V37.0771C97.064 41.1541 93.7585 44.4586 89.6825 44.4586C85.6065 44.4586 82.301 41.1541 82.301 37.0771V20.5907C82.301 15.0177 77.7886 10.4817 72.2271 10.4352L57.4546 10.4352C51.8926 10.4817 47.3807 15.0177 47.3807 20.5907V37.0771C47.3807 42.6791 51.9386 47.2371 57.5406 47.2371L72.1421 47.2371C76.2181 47.2371 79.5235 50.5415 79.5235 54.6185C79.5235 58.6955 76.2171 62 72.1411 62L57.5396 62C43.7977 62 32.6168 50.82 32.6168 37.0771L32.6168 20.5907C32.6168 15.4992 34.1543 10.7607 36.7867 6.8102C26.6718 1.4987 19.7538 -9.1057 19.7538 -21.3012L19.7538 -49.919H5.78783H-13.7721C-17.8481 -49.919 -21.1536 -53.224 -21.1536 -57.301C-21.1536 -61.378 -17.8481 -64.682 -13.7721 -64.682H-0.535065L13.2668 -153.548C13.8258 -157.145 16.9213 -159.797 20.5613 -159.797H32.6538C31.7518 -162.423 31.2548 -165.236 31.2548 -168.165V-186.619C31.2548 -190.696 34.5603 -194 38.6362 -194H91.0445C95.1205 -194 98.426 -190.696 98.426 -186.619V-168.165C98.426 -165.236 97.929 -162.423 97.027 -159.797H109.119C112.759 -159.797 115.855 -157.145 116.414 -153.548L130.216 -64.682H143.453C147.529 -64.682 150.834 -61.378 150.834 -57.301C150.834 -53.224 147.529 -49.919 143.453 -49.919ZM34.5168 -21.3012C34.5168 -11.9422 42.1307 -4.3277 51.4902 -4.3277H57.3686C57.3991 -4.3277 57.4286 -4.3297 57.4586 -4.3297V-30.8166C57.4586 -34.8936 60.7641 -38.198 64.8401 -38.198C68.9161 -38.198 72.2216 -34.8936 72.2216 -30.8166V-4.3297C72.2521 -4.3297 72.2816 -4.3277 72.3116 -4.3277H78.1906C87.55 -4.3277 95.164 -11.9417 95.164 -21.3012V-49.919L34.5168 -49.919L34.5168 -21.3012ZM64.8401 -141.962C57.3101 -141.962 51.1847 -135.836 51.1847 -128.307C51.1847 -120.777 57.3106 -114.651 64.8401 -114.651C72.3701 -114.651 78.4955 -120.777 78.4955 -128.307C78.496 -135.836 72.3701 -141.962 64.8401 -141.962ZM83.663 -179.236H46.0177V-168.164C46.0177 -162.059 50.9847 -157.092 57.0896 -157.092H72.5906C78.6955 -157.092 83.6625 -162.059 83.6625 -168.164V-179.236H83.663ZM102.796 -145.033L87.795 -145.033C91.2265 -140.336 93.2595 -134.555 93.2595 -128.306C93.2595 -112.636 80.511 -99.888 64.8411 -99.888C49.1712 -99.888 36.4227 -112.636 36.4227 -128.306C36.4227 -134.555 38.4547 -140.337 41.8872 -145.033H26.8858L14.4053 -64.682H27.1353L102.546 -64.682H115.275L102.796 -145.033Z" fill="#B3404A"/>
</g>
<g clip-path="url(#clip2)">
<path d="M115.081 143.96V118.694V100.656H143.699C155.894 100.656 166.499 91.7193 171.81 78.6548C175.76 82.0538 180.498 84.041 185.591 84.041H202.077C206.154 84.041 209.459 79.7714 209.459 74.5066C209.459 69.2417 206.154 64.9721 202.077 64.9721H185.591C180.018 64.9721 175.482 59.1436 175.435 51.96V32.8789C175.482 25.6946 180.018 19.8667 185.591 19.8667H202.077C207.679 19.8667 212.237 25.754 212.237 32.9899V51.8502C212.237 57.115 215.541 61.3845 219.619 61.3845C223.696 61.3845 227 57.1138 227 51.8489V32.9887C227 15.2387 215.82 0.796602 202.077 0.796602H185.591C180.499 0.796602 175.761 2.78253 171.81 6.18283C166.499 -6.88233 155.894 -15.818 143.699 -15.818H115.081V-33.8574V-59.1223C115.081 -64.3871 111.776 -68.6567 107.699 -68.6567C103.622 -68.6567 100.318 -64.3871 100.318 -59.1223V-42.0245L11.452 -24.1971C7.855 -23.475 5.203 -19.4767 5.203 -14.775V0.844397C2.577 -0.320681 -0.235993 -0.962638 -3.16499 -0.962638H-21.619C-25.696 -0.962638 -29 3.30695 -29 8.57176V76.2658C-29 81.5306 -25.696 85.8003 -21.619 85.8003H-3.16499C-0.235993 85.8003 2.577 85.1583 5.203 83.9932V99.6126C5.203 104.314 7.855 108.313 11.452 109.035L100.318 126.862V143.96C100.318 149.225 103.622 153.494 107.699 153.494C111.776 153.494 115.081 149.225 115.081 143.96ZM143.699 3.25076C153.058 3.25076 160.672 13.0855 160.672 25.1748V32.7678C160.672 32.8072 160.67 32.8453 160.67 32.884H134.183C130.106 32.884 126.802 37.1536 126.802 42.4185C126.802 47.6833 130.106 51.9529 134.183 51.9529H160.67C160.67 51.9923 160.672 52.0304 160.672 52.0691V59.6629C160.672 71.7521 153.058 81.5868 143.699 81.5868H115.081V3.25076H143.699ZM23.038 42.4185C23.038 32.6922 29.164 24.7802 36.693 24.7802C44.223 24.7802 50.349 32.6929 50.349 42.4185C50.349 52.1447 44.223 60.0567 36.693 60.0567C29.164 60.0573 23.038 52.1447 23.038 42.4185ZM-14.236 66.7314V18.1062H-3.164C2.941 18.1062 7.908 24.5219 7.908 32.4074V52.4295C7.908 60.315 2.941 66.7307 -3.164 66.7307H-14.236V66.7314ZM19.967 91.4454V72.0685C24.664 76.5009 30.445 79.1269 36.694 79.1269C52.364 79.1269 65.112 62.66 65.112 42.4198C65.112 22.1795 52.364 5.71267 36.694 5.71267C30.445 5.71267 24.663 8.33733 19.967 12.7709V-6.60591L100.318 -22.7265V-6.28364V91.1213V107.564L19.967 91.4454Z" fill="#B3404A"/>
</g>
<g clip-path="url(#clip3)">
<path d="M276.919 143.96V118.694V100.656H248.301C236.106 100.656 225.501 91.7193 220.19 78.6548C216.24 82.0538 211.502 84.041 206.409 84.041H189.923C185.846 84.041 182.541 79.7714 182.541 74.5066C182.541 69.2417 185.846 64.9721 189.923 64.9721H206.409C211.982 64.9721 216.518 59.1436 216.565 51.96V32.8789C216.518 25.6946 211.982 19.8667 206.409 19.8667H189.923C184.321 19.8667 179.763 25.754 179.763 32.9899V51.8502C179.763 57.115 176.459 61.3845 172.381 61.3845C168.304 61.3845 165 57.1138 165 51.8489V32.9887C165 15.2387 176.18 0.796602 189.923 0.796602H206.409C211.501 0.796602 216.239 2.78253 220.19 6.18283C225.501 -6.88233 236.106 -15.818 248.301 -15.818L276.919 -15.818V-33.8574V-59.1223C276.919 -64.3871 280.224 -68.6567 284.301 -68.6567C288.378 -68.6567 291.682 -64.3871 291.682 -59.1223V-42.0245L380.548 -24.1971C384.145 -23.475 386.797 -19.4767 386.797 -14.775V0.844397C389.423 -0.320681 392.236 -0.962638 395.165 -0.962638H413.619C417.696 -0.962638 421 3.30695 421 8.57176V76.2658C421 81.5306 417.696 85.8003 413.619 85.8003H395.165C392.236 85.8003 389.423 85.1583 386.797 83.9932V99.6126C386.797 104.314 384.145 108.313 380.548 109.035L291.682 126.862V143.96C291.682 149.225 288.378 153.494 284.301 153.494C280.224 153.494 276.919 149.225 276.919 143.96ZM248.301 3.25076C238.942 3.25076 231.328 13.0855 231.328 25.1748V32.7678C231.328 32.8072 231.33 32.8453 231.33 32.884H257.817C261.894 32.884 265.198 37.1536 265.198 42.4185C265.198 47.6833 261.894 51.9529 257.817 51.9529H231.33C231.33 51.9923 231.328 52.0304 231.328 52.0691V59.6629C231.328 71.7521 238.942 81.5868 248.301 81.5868H276.919V3.25076H248.301ZM368.962 42.4185C368.962 32.6922 362.836 24.7802 355.307 24.7802C347.777 24.7802 341.651 32.6929 341.651 42.4185C341.651 52.1447 347.777 60.0567 355.307 60.0567C362.836 60.0573 368.962 52.1447 368.962 42.4185ZM406.236 66.7314V18.1062H395.164C389.059 18.1062 384.092 24.5219 384.092 32.4074V52.4295C384.092 60.315 389.059 66.7307 395.164 66.7307H406.236V66.7314ZM372.033 91.4454V72.0685C367.336 76.5009 361.555 79.1269 355.306 79.1269C339.636 79.1269 326.888 62.66 326.888 42.4198C326.888 22.1795 339.636 5.71267 355.306 5.71267C361.555 5.71267 367.337 8.33733 372.033 12.7709V-6.60591L291.682 -22.7265V-6.28364V91.1213V107.564L372.033 91.4454Z" fill="#B3404A"/>
</g>
</g>
<defs>
<filter id="filter0_d" x="0" y="0" width="245.683" height="264" filterUnits="userSpaceOnUse" color-interpolation-filters="sRGB">
<feFlood flood-opacity="0" result="BackgroundImageFix"/>
<feColorMatrix in="SourceAlpha" type="matrix" values="0 0 0 0 0 0 0 0 0 0 0 0 0 0 0 0 0 0 127 0"/>
<feOffset dy="4"/>
<feGaussianBlur stdDeviation="2"/>
<feColorMatrix type="matrix" values="0 0 0 0 0 0 0 0 0 0 0 0 0 0 0 0 0 0 0.25 0"/>
<feBlend mode="normal" in2="BackgroundImageFix" result="effect1_dropShadow"/>
<feBlend mode="normal" in="SourceGraphic" in2="effect1_dropShadow" result="shape"/>
</filter>
<clipPath id="clip0">
<rect width="48" height="31" fill="white" transform="translate(32)"/>
</clipPath>
<clipPath id="clip1">
<rect width="48" height="31" fill="white" transform="matrix(1 0 0 -1 32 62)"/>
</clipPath>
<clipPath id="clip2">
<rect width="62" height="31" fill="white" transform="translate(227) rotate(90)"/>
</clipPath>
<clipPath id="clip3">
<rect width="62" height="31" fill="white" transform="matrix(0 1 1 0 165 0)"/>
</clipPath>
</defs>
</svg>
